<?xml version="1.0" encoding="UTF-8" standalone="no"?>
<svg
   xmlns:dc="http://purl.org/dc/elements/1.1/"
   xmlns:cc="http://creativecommons.org/ns#"
   xmlns:rdf="http://www.w3.org/1999/02/22-rdf-syntax-ns#"
   xmlns:svg="http://www.w3.org/2000/svg"
   xmlns="http://www.w3.org/2000/svg"
   viewBox="0 0 192 192"
   height="192"
   width="192"
   xml:space="preserve"
   id="svg2"
   version="1.1"><metadata
     id="metadata8"><rdf:RDF><cc:Work
         rdf:about=""><dc:format>image/svg+xml</dc:format><dc:type
           rdf:resource="http://purl.org/dc/dcmitype/StillImage" /></cc:Work></rdf:RDF></metadata><defs
     id="defs6"><clipPath
       id="clipPath18"
       clipPathUnits="userSpaceOnUse"><path
         id="path16"
         d="M 0,144 H 144 V 0 H 0 Z" /></clipPath></defs><g
     transform="matrix(1.3333333,0,0,-1.3333333,0,192)"
     id="g10"><g
       id="g12"><g
         clip-path="url(#clipPath18)"
         id="g14"><g
           transform="translate(63.0933,87.0615)"
           id="g20"><path
             id="path22"
             style="fill:#a90a84;fill-opacity:1;fill-rule:nonzero;stroke:none"
             d="m 0,0 c 0,0 -1.5,-0.435 -1.477,-2.052 0,0.014 -0.071,0.054 -0.081,0.062 -0.058,0.041 -0.119,0.079 -0.184,0.109 -0.054,0.025 -0.118,0.05 -0.178,0.042 -0.025,-0.004 -0.048,-0.015 -0.066,-0.034 -0.057,-0.062 -0.09,-0.141 -0.119,-0.219 -0.064,-0.166 -0.137,-0.332 -0.181,-0.506 -0.048,-0.189 -0.074,-0.383 -0.069,-0.578 0.006,-0.223 0.054,-0.444 0.146,-0.647 0.077,-0.172 0.185,-0.328 0.313,-0.467 0.956,-1.033 1.336,-1.515 1.336,-1.515 0,0 1.236,1.422 0.514,3.186 0,0 -0.833,2.098 0.046,2.619" /></g><g
           transform="translate(63.3965,86.9761)"
           id="g24"><path
             id="path26"
             style="fill:#a90a84;fill-opacity:1;fill-rule:nonzero;stroke:none"
             d="m 0,0 c 0.041,-0.019 0.082,-0.038 0.123,-0.058 0.107,-0.052 0.213,-0.107 0.318,-0.163 0.149,-0.081 0.296,-0.165 0.44,-0.255 0.167,-0.103 0.33,-0.212 0.487,-0.329 0.161,-0.12 0.316,-0.249 0.459,-0.39 0.101,-0.1 0.195,-0.208 0.278,-0.323 C 2.188,-1.631 2.266,-1.751 2.301,-1.91 2.314,-1.981 2.32,-2.054 2.319,-2.126 2.316,-2.339 2.247,-2.547 2.123,-2.72 2.077,-2.785 2.024,-2.844 1.966,-2.899 1.43,-3.404 0.933,-3.909 1.096,-4.391 c 0.163,-0.482 0.87,-1.103 0.87,-1.103 -0.033,0.061 -0.064,0.124 -0.094,0.187 -0.069,0.144 -0.134,0.29 -0.191,0.44 -0.077,0.203 -0.153,0.422 -0.167,0.641 -0.008,0.105 0.007,0.217 0.086,0.292 0.088,0.085 0.198,0.142 0.301,0.206 0.107,0.067 0.198,0.155 0.287,0.243 0.122,0.119 0.234,0.248 0.329,0.388 0.106,0.156 0.192,0.326 0.247,0.507 0.059,0.198 0.079,0.406 0.056,0.612 C 2.813,-1.919 2.803,-1.861 2.79,-1.803 2.502,-0.544 0,0 0,0" /></g><g
           transform="translate(55.0366,72.0483)"
           id="g28"><path
             id="path30"
             style="fill:#a90a84;fill-opacity:1;fill-rule:nonzero;stroke:none"
             d="M 0,0 C 1.017,0.709 1.993,1.483 2.94,2.282 3.28,2.569 3.616,2.861 3.944,3.162 4.798,3.941 5.632,4.754 6.2,5.772 6.432,6.187 6.692,6.583 6.962,6.975 7.228,7.361 7.504,7.746 7.826,8.089 8.077,8.356 8.488,8.808 8.898,8.674 9.08,8.615 9.247,8.532 9.386,8.399 9.666,8.13 9.848,7.768 9.989,7.412 10.213,6.841 10.287,6.2 10.361,5.597 10.463,4.762 10.517,3.919 10.528,3.079 10.535,2.599 10.542,2.118 10.505,1.639 10.457,1.025 10.305,0.429 10.161,-0.167 10.013,-0.782 9.852,-1.394 9.681,-2.003 9.464,-2.777 9.23,-3.545 8.985,-4.311 8.796,-4.901 8.579,-5.48 8.347,-6.054 8.159,-6.518 7.972,-6.985 7.747,-7.432 7.479,-7.964 7.167,-8.486 6.874,-9.01 6.577,-9.543 6.309,-10.092 6.021,-10.63 5.779,-11.08 5.532,-11.525 5.276,-11.966 4.796,-12.793 4.291,-13.612 3.709,-14.372 3.581,-14.54 3.447,-14.706 3.308,-14.865 3.101,-15.209 2.823,-15.462 2.5,-15.694 c -0.035,-0.025 -0.075,-0.049 -0.118,-0.05 -0.172,-0.004 -0.123,0.337 -0.108,0.44 0.048,0.322 0.223,0.584 0.371,0.866 0.121,0.23 0.103,0.427 0.104,0.675 10e-4,0.174 0,0.346 -0.005,0.52 -0.011,0.424 -0.137,0.852 -0.104,1.274 0.021,0.281 0.135,0.607 0.46,0.639 0.123,0.012 0.254,-0.018 0.376,-0.034 0.08,-0.011 0.183,-0.046 0.174,-0.145 10e-4,0.01 -0.289,-0.042 -0.315,-0.05 -0.612,-0.182 -0.224,-1.069 -0.167,-1.47 0.041,-0.288 0.044,-0.582 0.012,-0.871 -0.011,-0.099 -0.075,-0.368 0.039,-0.433 0.102,-0.06 0.185,0.125 0.221,0.189 0,0 2.153,4.157 2.689,5.548 0.178,0.46 0.353,0.921 0.524,1.384 0.268,0.724 0.528,1.453 0.777,2.184 0.287,0.844 0.559,1.694 0.807,2.55 0.344,1.191 0.665,2.395 0.784,3.634 C 9.082,1.788 9.088,2.422 9.114,3.057 9.132,3.682 9.159,4.306 9.148,4.931 9.142,5.252 9.128,5.573 9.105,5.893 9.077,6.27 9.104,6.809 8.826,7.1 8.501,7.44 8.223,6.956 8.061,6.707 7.764,6.249 7.406,5.824 7.052,5.41 6.628,4.912 6.182,4.433 5.721,3.969 5.42,3.666 5.109,3.373 4.78,3.1 4.308,2.71 3.805,2.361 3.301,2.012 2.806,1.67 2.324,1.309 1.825,0.972 1.59,0.813 1.353,0.659 1.106,0.52 0.751,0.319 0.381,0.146 0,0" /></g><g
           transform="translate(65.9966,80.8657)"
           id="g32"><path
             id="path34"
             style="fill:#a90a84;fill-opacity:1;fill-rule:nonzero;stroke:none"
             d="M 0,0 C 0.216,-0.179 0.404,-0.403 0.6,-0.604 0.807,-0.817 1.01,-1.033 1.209,-1.253 1.408,-1.474 1.602,-1.699 1.788,-1.931 2.017,-2.215 2.178,-2.555 2.231,-2.917 2.288,-3.299 2.202,-3.661 2.086,-4.023 1.806,-4.894 1.146,-6.44 1.114,-6.743 1.083,-7.046 0.757,-7.723 1.643,-7.691 c 0.432,0.015 0.872,0.188 1.273,0.335 0.52,0.19 1.027,0.409 1.531,0.636 0.329,0.148 0.679,0.372 1.049,0.374 0.331,0.002 0.262,-0.307 0.136,-0.517 C 5.388,-7.269 5.091,-7.65 4.817,-8.037 4.547,-8.419 4.274,-8.8 3.994,-9.176 3.753,-9.499 3.513,-9.83 3.236,-10.124 c -0.63,-0.668 -1.531,-1.554 -2.44,-2.153 -0.122,-0.054 -0.241,-0.112 -0.36,-0.173 -0.224,-0.114 -0.446,-0.235 -0.65,-0.381 -0.055,-0.038 -0.107,-0.079 -0.157,-0.123 -0.021,-0.019 -0.041,-0.039 -0.06,-0.059 -0.021,-0.024 -0.038,-0.06 -0.088,-0.088 -0.109,-0.022 -0.211,0.013 -0.23,0.134 -0.015,0.096 0.046,0.183 0.085,0.267 0.045,0.1 0.067,0.212 0.083,0.321 0.026,0.172 0.032,0.347 0.044,0.521 0.014,0.182 0.058,0.363 0.135,0.528 0.026,0.057 0.057,0.112 0.092,0.163 0.044,0.066 0.096,0.131 0.163,0.176 0.051,0.034 0.11,0.045 0.171,0.053 0.124,0.017 0.262,0.009 0.371,-0.06 0.035,-0.022 0.065,-0.049 0.09,-0.082 -0.003,0.004 0.001,0.025 0.001,0.03 -0.001,0.026 -0.004,0.051 -0.009,0.077 -0.018,0.081 -0.058,0.156 -0.117,0.215 -0.113,0.113 -0.281,0.166 -0.439,0.168 -0.161,0.002 -0.278,-0.079 -0.372,-0.207 -0.05,-0.07 -0.091,-0.145 -0.128,-0.222 -0.173,-0.358 -0.268,-0.766 -0.34,-1.156 -0.035,-0.184 -0.06,-0.368 -0.072,-0.555 -0.004,-0.068 0,-0.117 -0.05,-0.168 -0.092,-0.094 -0.188,-0.184 -0.283,-0.275 -0.145,-0.141 -0.292,-0.28 -0.437,-0.419 -0.114,-0.11 -0.24,-0.219 -0.332,-0.348 -0.049,-0.067 -0.113,-0.185 0.006,-0.222 0.041,-0.012 0.088,-0.009 0.13,-0.006 0.072,0.005 0.142,0.019 0.212,0.035 0.792,0.178 4.002,2.354 4.002,2.354 0.415,0.316 0.821,0.644 1.221,0.979 0.439,0.366 0.881,0.731 1.281,1.141 0.368,0.377 0.684,0.803 0.991,1.23 0.323,0.447 0.61,0.936 0.769,1.467 0.106,0.356 0.246,0.92 -0.044,1.228 -0.302,0.319 -0.793,0.321 -1.197,0.27 C 4.788,-5.527 4.306,-5.673 3.84,-5.834 3.682,-5.889 3.524,-5.948 3.368,-6.011 2.966,-6.173 2.609,-6.405 2.217,-6.586 2.138,-6.623 1.85,-6.747 1.795,-6.627 c -0.014,0.032 0.006,0.08 0.019,0.109 0.147,0.342 0.832,1.99 0.971,2.448 0.122,0.4 0.183,0.86 0.069,1.269 C 2.72,-2.325 2.257,-1.989 1.922,-1.653 1.324,-1.055 0.699,-0.479 0,0" /></g></g></g></g></svg>