<svg width="3095" height="903" viewBox="0 0 3095 903" fill="none" xmlns="http://www.w3.org/2000/svg">
<path d="M934.24 798.6C915.04 798.6 900.52 793.2 890.68 782.4C880.84 771.36 875.92 755.64 875.92 735.24V720.84H913.36V738.12C913.36 754.44 920.2 762.6 933.88 762.6C940.6 762.6 945.64 760.68 949 756.84C952.6 752.76 954.4 746.28 954.4 737.4C954.4 726.84 952 717.6 947.2 709.68C942.4 701.52 933.52 691.8 920.56 680.52C904.24 666.12 892.84 653.16 886.36 641.64C879.88 629.88 876.64 616.68 876.64 602.04C876.64 582.12 881.68 566.76 891.76 555.96C901.84 544.92 916.48 539.4 935.68 539.4C954.64 539.4 968.92 544.92 978.52 555.96C988.36 566.76 993.28 582.36 993.28 602.76V613.2H955.84V600.24C955.84 591.6 954.16 585.36 950.8 581.52C947.44 577.44 942.52 575.4 936.04 575.4C922.84 575.4 916.24 583.44 916.24 599.52C916.24 608.64 918.64 617.16 923.44 625.08C928.48 633 937.48 642.6 950.44 653.88C967 668.28 978.4 681.36 984.64 693.12C990.88 704.88 994 718.68 994 734.52C994 755.16 988.84 771 978.52 782.04C968.44 793.08 953.68 798.6 934.24 798.6ZM1046.97 543H1100.61L1141.65 795H1102.05L1094.85 744.96V745.68H1049.85L1042.65 795H1005.93L1046.97 543ZM1090.17 711.48L1072.53 586.92H1071.81L1054.53 711.48H1090.17ZM1161.58 543H1201.18V759H1266.34V795H1161.58V543ZM1286.05 543H1394.05V579H1325.65V645.6H1380.01V681.6H1325.65V759H1394.05V795H1286.05V543ZM1469.74 798.6C1450.54 798.6 1436.02 793.2 1426.18 782.4C1416.34 771.36 1411.42 755.64 1411.42 735.24V720.84H1448.86V738.12C1448.86 754.44 1455.7 762.6 1469.38 762.6C1476.1 762.6 1481.14 760.68 1484.5 756.84C1488.1 752.76 1489.9 746.28 1489.9 737.4C1489.9 726.84 1487.5 717.6 1482.7 709.68C1477.9 701.52 1469.02 691.8 1456.06 680.52C1439.74 666.12 1428.34 653.16 1421.86 641.64C1415.38 629.88 1412.14 616.68 1412.14 602.04C1412.14 582.12 1417.18 566.76 1427.26 555.96C1437.34 544.92 1451.98 539.4 1471.18 539.4C1490.14 539.4 1504.42 544.92 1514.02 555.96C1523.86 566.76 1528.78 582.36 1528.78 602.76V613.2H1491.34V600.24C1491.34 591.6 1489.66 585.36 1486.3 581.52C1482.94 577.44 1478.02 575.4 1471.54 575.4C1458.34 575.4 1451.74 583.44 1451.74 599.52C1451.74 608.64 1454.14 617.16 1458.94 625.08C1463.98 633 1472.98 642.6 1485.94 653.88C1502.5 668.28 1513.9 681.36 1520.14 693.12C1526.38 704.88 1529.5 718.68 1529.5 734.52C1529.5 755.16 1524.34 771 1514.02 782.04C1503.94 793.08 1489.18 798.6 1469.74 798.6ZM1667.1 798.6C1648.14 798.6 1633.62 793.2 1623.54 782.4C1613.7 771.6 1608.78 756.36 1608.78 736.68V601.32C1608.78 581.64 1613.7 566.4 1623.54 555.6C1633.62 544.8 1648.14 539.4 1667.1 539.4C1686.06 539.4 1700.46 544.8 1710.3 555.6C1720.38 566.4 1725.42 581.64 1725.42 601.32V627.96H1687.98V598.8C1687.98 583.2 1681.38 575.4 1668.18 575.4C1654.98 575.4 1648.38 583.2 1648.38 598.8V739.56C1648.38 754.92 1654.98 762.6 1668.18 762.6C1681.38 762.6 1687.98 754.92 1687.98 739.56V701.04H1725.42V736.68C1725.42 756.36 1720.38 771.6 1710.3 782.4C1700.46 793.2 1686.06 798.6 1667.1 798.6ZM1807.77 798.6C1788.33 798.6 1773.45 793.08 1763.13 782.04C1752.81 771 1747.65 755.4 1747.65 735.24V602.76C1747.65 582.6 1752.81 567 1763.13 555.96C1773.45 544.92 1788.33 539.4 1807.77 539.4C1827.21 539.4 1842.09 544.92 1852.41 555.96C1862.73 567 1867.89 582.6 1867.89 602.76V735.24C1867.89 755.4 1862.73 771 1852.41 782.04C1842.09 793.08 1827.21 798.6 1807.77 798.6ZM1807.77 762.6C1821.45 762.6 1828.29 754.32 1828.29 737.76V600.24C1828.29 583.68 1821.45 575.4 1807.77 575.4C1794.09 575.4 1787.25 583.68 1787.25 600.24V737.76C1787.25 754.32 1794.09 762.6 1807.77 762.6ZM1895.4 543H1954.08C1974.48 543 1989.36 547.8 1998.72 557.4C2008.08 566.76 2012.76 581.28 2012.76 600.96V616.44C2012.76 642.6 2004.12 659.16 1986.84 666.12V666.84C1996.44 669.72 2003.16 675.6 2007 684.48C2011.08 693.36 2013.12 705.24 2013.12 720.12V764.4C2013.12 771.6 2013.36 777.48 2013.84 782.04C2014.32 786.36 2015.52 790.68 2017.44 795H1977.12C1975.68 790.92 1974.72 787.08 1974.24 783.48C1973.76 779.88 1973.52 773.4 1973.52 764.04V717.96C1973.52 706.44 1971.6 698.4 1967.76 693.84C1964.16 689.28 1957.8 687 1948.68 687H1935V795H1895.4V543ZM1949.4 651C1957.32 651 1963.2 648.96 1967.04 644.88C1971.12 640.8 1973.16 633.96 1973.16 624.36V604.92C1973.16 595.8 1971.48 589.2 1968.12 585.12C1965 581.04 1959.96 579 1953 579H1935V651H1949.4ZM2041.31 543H2099.63C2119.31 543 2134.07 548.28 2143.91 558.84C2153.75 569.4 2158.67 584.88 2158.67 605.28V630.12C2158.67 650.52 2153.75 666 2143.91 676.56C2134.07 687.12 2119.31 692.4 2099.63 692.4H2080.91V795H2041.31V543ZM2099.63 656.4C2106.11 656.4 2110.91 654.6 2114.03 651C2117.39 647.4 2119.07 641.28 2119.07 632.64V602.76C2119.07 594.12 2117.39 588 2114.03 584.4C2110.91 580.8 2106.11 579 2099.63 579H2080.91V656.4H2099.63ZM2238.14 798.6C2218.7 798.6 2203.82 793.08 2193.5 782.04C2183.18 771 2178.02 755.4 2178.02 735.24V602.76C2178.02 582.6 2183.18 567 2193.5 555.96C2203.82 544.92 2218.7 539.4 2238.14 539.4C2257.58 539.4 2272.46 544.92 2282.78 555.96C2293.1 567 2298.26 582.6 2298.26 602.76V735.24C2298.26 755.4 2293.1 771 2282.78 782.04C2272.46 793.08 2257.58 798.6 2238.14 798.6ZM2238.14 762.6C2251.82 762.6 2258.66 754.32 2258.66 737.76V600.24C2258.66 583.68 2251.82 575.4 2238.14 575.4C2224.46 575.4 2217.62 583.68 2217.62 600.24V737.76C2217.62 754.32 2224.46 762.6 2238.14 762.6ZM2325.76 543H2384.44C2404.84 543 2419.72 547.8 2429.08 557.4C2438.44 566.76 2443.12 581.28 2443.12 600.96V616.44C2443.12 642.6 2434.48 659.16 2417.2 666.12V666.84C2426.8 669.72 2433.52 675.6 2437.36 684.48C2441.44 693.36 2443.48 705.24 2443.48 720.12V764.4C2443.48 771.6 2443.72 777.48 2444.2 782.04C2444.68 786.36 2445.88 790.68 2447.8 795H2407.48C2406.04 790.92 2405.08 787.08 2404.6 783.48C2404.12 779.88 2403.88 773.4 2403.88 764.04V717.96C2403.88 706.44 2401.96 698.4 2398.12 693.84C2394.52 689.28 2388.16 687 2379.04 687H2365.36V795H2325.76V543ZM2379.76 651C2387.68 651 2393.56 648.96 2397.4 644.88C2401.48 640.8 2403.52 633.96 2403.52 624.36V604.92C2403.52 595.8 2401.84 589.2 2398.48 585.12C2395.36 581.04 2390.32 579 2383.36 579H2365.36V651H2379.76ZM2502.27 543H2555.91L2596.95 795H2557.35L2550.15 744.96V745.68H2505.15L2497.95 795H2461.23L2502.27 543ZM2545.47 711.48L2527.83 586.92H2527.11L2509.83 711.48H2545.47ZM2631.32 579H2589.92V543H2712.32V579H2670.92V795H2631.32V579ZM2732.21 543H2771.81V795H2732.21V543ZM2859.43 798.6C2839.99 798.6 2825.11 793.08 2814.79 782.04C2804.47 771 2799.31 755.4 2799.31 735.24V602.76C2799.31 582.6 2804.47 567 2814.79 555.96C2825.11 544.92 2839.99 539.4 2859.43 539.4C2878.87 539.4 2893.75 544.92 2904.07 555.96C2914.39 567 2919.55 582.6 2919.55 602.76V735.24C2919.55 755.4 2914.39 771 2904.07 782.04C2893.75 793.08 2878.87 798.6 2859.43 798.6ZM2859.43 762.6C2873.11 762.6 2879.95 754.32 2879.95 737.76V600.24C2879.95 583.68 2873.11 575.4 2859.43 575.4C2845.75 575.4 2838.91 583.68 2838.91 600.24V737.76C2838.91 754.32 2845.75 762.6 2859.43 762.6ZM2947.05 543H2996.73L3035.25 693.84H3035.97V543H3071.25V795H3030.57L2983.05 611.04H2982.33V795H2947.05V543Z" fill="black"/>
<path d="M887.55 110H979.95C1010.02 110 1032.57 118.067 1047.6 134.2C1062.63 150.333 1070.15 173.983 1070.15 205.15V399.85C1070.15 431.017 1062.63 454.667 1047.6 470.8C1032.57 486.933 1010.02 495 979.95 495H887.55V110ZM978.85 440C988.75 440 996.267 437.067 1001.4 431.2C1006.9 425.333 1009.65 415.8 1009.65 402.6V202.4C1009.65 189.2 1006.9 179.667 1001.4 173.8C996.267 167.933 988.75 165 978.85 165H948.05V440H978.85ZM1116.49 110H1176.99V495H1116.49V110ZM1313.6 500.5C1284.26 500.5 1261.9 492.25 1246.5 475.75C1231.1 458.883 1223.4 434.867 1223.4 403.7V201.3C1223.4 170.133 1231.1 146.3 1246.5 129.8C1261.9 112.933 1284.26 104.5 1313.6 104.5C1342.93 104.5 1365.3 112.933 1380.7 129.8C1396.1 146.3 1403.8 170.133 1403.8 201.3V234.3H1346.6V197.45C1346.6 172.15 1336.15 159.5 1315.25 159.5C1294.35 159.5 1283.9 172.15 1283.9 197.45V408.1C1283.9 433.033 1294.35 445.5 1315.25 445.5C1336.15 445.5 1346.6 433.033 1346.6 408.1V332.75H1316.35V277.75H1403.8V403.7C1403.8 434.867 1396.1 458.883 1380.7 475.75C1365.3 492.25 1342.93 500.5 1313.6 500.5ZM1448.14 110H1508.64V495H1448.14V110ZM1606.75 165H1543.5V110H1730.5V165H1667.25V495H1606.75V165ZM1786.8 110H1868.75L1931.45 495H1870.95L1859.95 418.55V419.65H1791.2L1780.2 495H1724.1L1786.8 110ZM1852.8 367.4L1825.85 177.1H1824.75L1798.35 367.4H1852.8ZM1966.3 110H2026.8V440H2126.35V495H1966.3V110ZM2301.2 110H2383.15L2445.85 495H2385.35L2374.35 418.55V419.65H2305.6L2294.6 495H2238.5L2301.2 110ZM2367.2 367.4L2340.25 177.1H2339.15L2312.75 367.4H2367.2ZM2480.7 110H2570.35C2601.52 110 2624.25 117.333 2638.55 132C2652.85 146.3 2660 168.483 2660 198.55V222.2C2660 262.167 2646.8 287.467 2620.4 298.1V299.2C2635.07 303.6 2645.34 312.583 2651.2 326.15C2657.44 339.717 2660.55 357.867 2660.55 380.6V448.25C2660.55 459.25 2660.92 468.233 2661.65 475.2C2662.39 481.8 2664.22 488.4 2667.15 495H2605.55C2603.35 488.767 2601.89 482.9 2601.15 477.4C2600.42 471.9 2600.05 462 2600.05 447.7V377.3C2600.05 359.7 2597.12 347.417 2591.25 340.45C2585.75 333.483 2576.04 330 2562.1 330H2541.2V495H2480.7V110ZM2563.2 275C2575.3 275 2584.29 271.883 2590.15 265.65C2596.39 259.417 2599.5 248.967 2599.5 234.3V204.6C2599.5 190.667 2596.94 180.583 2591.8 174.35C2587.04 168.117 2579.34 165 2568.7 165H2541.2V275H2563.2ZM2754.25 165H2691V110H2878V165H2814.75V495H2754.25V165ZM2991.45 500.5C2962.11 500.5 2939.93 492.25 2924.9 475.75C2909.86 458.883 2902.35 434.867 2902.35 403.7V381.7H2959.55V408.1C2959.55 433.033 2970 445.5 2990.9 445.5C3001.16 445.5 3008.86 442.567 3014 436.7C3019.5 430.467 3022.25 420.567 3022.25 407C3022.25 390.867 3018.58 376.75 3011.25 364.65C3003.91 352.183 2990.35 337.333 2970.55 320.1C2945.61 298.1 2928.2 278.3 2918.3 260.7C2908.4 242.733 2903.45 222.567 2903.45 200.2C2903.45 169.767 2911.15 146.3 2926.55 129.8C2941.95 112.933 2964.31 104.5 2993.65 104.5C3022.61 104.5 3044.43 112.933 3059.1 129.8C3074.13 146.3 3081.65 170.133 3081.65 201.3V217.25H3024.45V197.45C3024.45 184.25 3021.88 174.717 3016.75 168.85C3011.61 162.617 3004.1 159.5 2994.2 159.5C2974.03 159.5 2963.95 171.783 2963.95 196.35C2963.95 210.283 2967.61 223.3 2974.95 235.4C2982.65 247.5 2996.4 262.167 3016.2 279.4C3041.5 301.4 3058.91 321.383 3068.45 339.35C3077.98 357.317 3082.75 378.4 3082.75 402.6C3082.75 434.133 3074.86 458.333 3059.1 475.2C3043.7 492.067 3021.15 500.5 2991.45 500.5Z" fill="black"/>
<path d="M363.623 95C291.705 95 221.402 116.326 161.605 156.281C101.807 196.237 55.201 253.027 27.6793 319.47C0.157554 385.913 -7.04339 459.026 6.98707 529.562C21.0175 600.097 55.6492 664.889 106.503 715.742C157.356 766.596 222.148 801.228 292.683 815.258C363.219 829.288 436.332 822.088 502.775 794.566C569.218 767.044 626.008 720.438 665.964 660.64C705.919 600.843 727.245 530.54 727.245 458.622C724.967 257.6 562.367 95 363.623 95ZM383.872 754.461C331.608 754.491 280.509 739.023 237.037 710.011C193.564 681 159.671 639.749 139.643 591.475C119.614 543.202 114.351 490.073 124.518 438.807C134.684 387.542 159.825 340.443 196.759 303.465C233.694 266.488 280.765 241.294 332.018 231.068C383.272 220.842 436.407 226.045 484.704 246.018C533 265.99 574.29 299.836 603.351 343.275C632.413 386.714 647.94 437.795 647.97 490.059C647.876 560.065 620.039 627.181 570.556 676.701C521.073 726.222 453.979 754.111 383.973 754.259L383.872 754.461Z" fill="#F10000"/>
<path d="M612.028 519.572C612.476 555.752 602.185 591.253 582.457 621.585C562.729 651.917 534.45 675.717 501.196 689.978C467.942 704.238 431.206 708.318 395.633 701.701C360.061 695.083 327.249 678.067 301.347 652.802C275.445 627.537 257.617 595.159 250.116 559.763C242.615 524.366 245.778 487.539 259.207 453.94C272.635 420.341 295.724 391.479 325.555 371.002C355.386 350.525 390.62 339.353 426.8 338.9H429.128C452.988 338.74 476.645 343.281 498.749 352.264C520.853 361.247 540.972 374.496 557.956 391.254C574.94 408.012 588.456 427.952 597.734 449.934C607.012 471.916 611.869 495.51 612.028 519.37V519.572Z" fill="#F10000"/>
</svg>
