<svg xmlns="http://www.w3.org/2000/svg" viewBox="0 0 466.04 658.91"><g id="Layer_2" data-name="Layer 2"><g id="Layer_1-2" data-name="Layer 1"><path d="M230.78,658.91c-106.35,0-167.43-62.21-184.29-81.7-29.69-34.35-56.21-109.87-43-166C3.57,450.79,88.65,505.36,156.2,474c-10-1-32.11-10.14-47.72-19C65.77,430.71,38.53,370,57.27,322.6c-1.41,35.85,23.9,62.73,43.56,62.73C83,364.25,75.54,340,81.17,311.52c9.37-56.92,53.4-98,86.21-139.13,22.48-26.37,46.1-50.44,63.4-81.7,8.73-15.82,29.83-62.92,8.73-90.69,36.84,28.89,38.89,83.31,16.41,128.09-16.35,32.56-31.39,52.73-48.26,85.4-15,30.57-35.6,59.05-30,94.87,5.63,34.8,26.25,62.22,59,62.22,42.16,0,64.66-34.74,55.28-74.86,19.68,23.2,31.39,58.52,22,91.21-9.37,36.87-41.22,72.2-74.5,82.75,45,2.09,83.87-14.77,111-55.89,28.11-43.21,36.08-90.66,24.84-140.21-5.62-28.45-21.83-57.46-8.71-84.87-7.5,35.86,31.67,69.06,47.6,96.47,19.67,32.68,28.58,59.56,23.88,97-3.53,28.26-17.34,66.19-35.6,75.9,15-6.32,49.66-30.05,53.4-72.23,19.22,40.59,7.5,101.73-6.55,133.38-16.87,37.93-52.41,84.41-94.93,108.58-26.47,15-72.79,28.47-111.57,31.1Z"/></g></g></svg>