<svg width="3410" height="731" viewBox="0 0 3410 731" fill="none" xmlns="http://www.w3.org/2000/svg">
<rect width="3410" height="731" fill="#F6FCFC"/>
<path d="M893.614 352.06H897.754V394H893.614V352.06ZM921.181 362.56H925.501L935.941 389.98L946.261 362.56H950.461L937.981 394H933.721L921.181 362.56ZM967.477 362.44C972.357 362.44 976.077 364 978.637 367.12C981.197 370.2 982.377 374.36 982.177 379.6H955.957C956.237 382.96 957.477 385.68 959.677 387.76C961.877 389.8 964.597 390.82 967.837 390.82C969.837 390.82 971.697 390.46 973.417 389.74C975.137 389.02 976.617 388 977.857 386.68L980.137 388.96C978.617 390.6 976.777 391.88 974.617 392.8C972.497 393.68 970.157 394.12 967.597 394.12C964.557 394.12 961.857 393.46 959.497 392.14C957.137 390.78 955.277 388.9 953.917 386.5C952.597 384.1 951.937 381.36 951.937 378.28C951.937 375.24 952.597 372.52 953.917 370.12C955.277 367.68 957.137 365.8 959.497 364.48C961.857 363.12 964.517 362.44 967.477 362.44ZM978.577 376.48C978.377 373.2 977.277 370.6 975.277 368.68C973.317 366.72 970.737 365.74 967.537 365.74C964.377 365.74 961.737 366.72 959.617 368.68C957.497 370.64 956.277 373.24 955.957 376.48H978.577ZM994.589 369.88C995.629 367.48 997.109 365.66 999.029 364.42C1000.99 363.14 1003.33 362.48 1006.05 362.44V366.22C1002.73 366.18 1000.05 367.16 998.009 369.16C996.009 371.12 994.869 373.8 994.589 377.2V394H990.569V362.56H994.589V369.88ZM1012.54 362.56H1016.56V394H1012.54V362.56ZM1014.58 350.68C1015.38 350.68 1016.04 350.96 1016.56 351.52C1017.08 352.04 1017.34 352.7 1017.34 353.5C1017.34 354.3 1017.06 354.98 1016.5 355.54C1015.98 356.1 1015.34 356.38 1014.58 356.38C1013.78 356.38 1013.1 356.1 1012.54 355.54C1012.02 354.98 1011.76 354.3 1011.76 353.5C1011.76 352.7 1012.02 352.04 1012.54 351.52C1013.1 350.96 1013.78 350.68 1014.58 350.68ZM1039.05 352.6C1037.37 352.6 1035.95 353.18 1034.79 354.34C1033.67 355.5 1033.11 357.04 1033.11 358.96V363.4H1042.35V366.58H1033.11V394H1029.09V366.58H1025.07V363.4H1029.09V359.44C1029.09 357.36 1029.53 355.54 1030.41 353.98C1031.29 352.38 1032.47 351.16 1033.95 350.32C1035.43 349.48 1037.03 349.06 1038.75 349.06C1040.71 349.06 1042.55 349.54 1044.27 350.5L1043.25 353.74C1041.81 352.98 1040.41 352.6 1039.05 352.6ZM1047.75 362.56H1051.77V394H1047.75V362.56ZM1049.79 350.68C1050.59 350.68 1051.25 350.96 1051.77 351.52C1052.29 352.04 1052.55 352.7 1052.55 353.5C1052.55 354.3 1052.27 354.98 1051.71 355.54C1051.19 356.1 1050.55 356.38 1049.79 356.38C1048.99 356.38 1048.31 356.1 1047.75 355.54C1047.23 354.98 1046.97 354.3 1046.97 353.5C1046.97 352.7 1047.23 352.04 1047.75 351.52C1048.31 350.96 1048.99 350.68 1049.79 350.68ZM1075.7 362.44C1080.58 362.44 1084.3 364 1086.86 367.12C1089.42 370.2 1090.6 374.36 1090.4 379.6H1064.18C1064.46 382.96 1065.7 385.68 1067.9 387.76C1070.1 389.8 1072.82 390.82 1076.06 390.82C1078.06 390.82 1079.92 390.46 1081.64 389.74C1083.36 389.02 1084.84 388 1086.08 386.68L1088.36 388.96C1086.84 390.6 1085 391.88 1082.84 392.8C1080.72 393.68 1078.38 394.12 1075.82 394.12C1072.78 394.12 1070.08 393.46 1067.72 392.14C1065.36 390.78 1063.5 388.9 1062.14 386.5C1060.82 384.1 1060.16 381.36 1060.16 378.28C1060.16 375.24 1060.82 372.52 1062.14 370.12C1063.5 367.68 1065.36 365.8 1067.72 364.48C1070.08 363.12 1072.74 362.44 1075.7 362.44ZM1086.8 376.48C1086.6 373.2 1085.5 370.6 1083.5 368.68C1081.54 366.72 1078.96 365.74 1075.76 365.74C1072.6 365.74 1069.96 366.72 1067.84 368.68C1065.72 370.64 1064.5 373.24 1064.18 376.48H1086.8ZM1127.41 349.48V394H1123.39V386.8C1122.19 389.16 1120.51 391 1118.35 392.32C1116.19 393.6 1113.67 394.24 1110.79 394.24C1107.83 394.24 1105.19 393.56 1102.87 392.2C1100.55 390.84 1098.75 388.94 1097.47 386.5C1096.19 384.06 1095.55 381.3 1095.55 378.22C1095.55 375.14 1096.19 372.4 1097.47 370C1098.79 367.6 1100.59 365.72 1102.87 364.36C1105.19 363 1107.81 362.32 1110.73 362.32C1113.61 362.32 1116.13 362.98 1118.29 364.3C1120.49 365.62 1122.19 367.46 1123.39 369.82V349.48H1127.41ZM1111.51 390.76C1113.79 390.76 1115.83 390.24 1117.63 389.2C1119.43 388.12 1120.83 386.64 1121.83 384.76C1122.87 382.88 1123.39 380.74 1123.39 378.34C1123.39 375.94 1122.87 373.8 1121.83 371.92C1120.83 370 1119.43 368.5 1117.63 367.42C1115.83 366.34 1113.79 365.8 1111.51 365.8C1109.23 365.8 1107.19 366.34 1105.39 367.42C1103.59 368.5 1102.17 370 1101.13 371.92C1100.09 373.8 1099.57 375.94 1099.57 378.34C1099.57 380.74 1100.07 382.88 1101.07 384.76C1102.11 386.64 1103.53 388.12 1105.33 389.2C1107.17 390.24 1109.23 390.76 1111.51 390.76ZM1196.12 362.44C1199.84 362.44 1202.74 363.52 1204.82 365.68C1206.9 367.84 1207.94 370.84 1207.94 374.68V394H1203.86V375.64C1203.86 372.64 1203.04 370.32 1201.4 368.68C1199.8 367 1197.58 366.16 1194.74 366.16C1191.38 366.24 1188.74 367.4 1186.82 369.64C1184.94 371.88 1184 374.84 1184 378.52V394H1179.92V375.64C1179.92 372.64 1179.1 370.32 1177.46 368.68C1175.86 367 1173.64 366.16 1170.8 366.16C1167.44 366.24 1164.8 367.4 1162.88 369.64C1160.96 371.88 1160 374.84 1160 378.52V394H1155.98V362.56H1160V369.94C1161.04 367.46 1162.58 365.6 1164.62 364.36C1166.7 363.12 1169.22 362.48 1172.18 362.44C1175.18 362.44 1177.66 363.18 1179.62 364.66C1181.62 366.14 1182.94 368.22 1183.58 370.9C1184.54 368.1 1186.08 366 1188.2 364.6C1190.36 363.2 1193 362.48 1196.12 362.44ZM1226.63 398.5C1225.67 400.9 1224.39 402.72 1222.79 403.96C1221.23 405.2 1219.43 405.82 1217.39 405.82C1214.95 405.82 1212.79 405.1 1210.91 403.66L1212.71 400.54C1214.11 401.5 1215.61 401.98 1217.21 401.98C1218.49 401.98 1219.65 401.56 1220.69 400.72C1221.73 399.88 1222.59 398.66 1223.27 397.06L1224.59 393.82L1211.57 362.56H1215.83L1226.63 389.56L1237.01 362.56H1241.15L1226.63 398.5ZM1283.18 394L1283.12 388.72C1281.88 390.56 1280.26 391.94 1278.26 392.86C1276.26 393.74 1273.96 394.18 1271.36 394.18C1269.24 394.18 1267.36 393.78 1265.72 392.98C1264.12 392.14 1262.88 391 1262 389.56C1261.12 388.12 1260.68 386.5 1260.68 384.7C1260.68 381.98 1261.72 379.84 1263.8 378.28C1265.92 376.72 1268.82 375.94 1272.5 375.94H1283.06V373.54C1283.06 371.06 1282.32 369.14 1280.84 367.78C1279.36 366.42 1277.2 365.74 1274.36 365.74C1271 365.74 1267.62 367 1264.22 369.52L1262.42 366.76C1264.54 365.28 1266.56 364.2 1268.48 363.52C1270.4 362.8 1272.6 362.44 1275.08 362.44C1278.88 362.44 1281.82 363.4 1283.9 365.32C1285.98 367.2 1287.04 369.82 1287.08 373.18L1287.14 394H1283.18ZM1272.08 390.82C1274.88 390.82 1277.24 390.18 1279.16 388.9C1281.12 387.58 1282.44 385.74 1283.12 383.38V379.06H1272.98C1270.22 379.06 1268.12 379.52 1266.68 380.44C1265.24 381.36 1264.52 382.74 1264.52 384.58C1264.52 386.46 1265.2 387.98 1266.56 389.14C1267.96 390.26 1269.8 390.82 1272.08 390.82ZM1319.79 369.7C1317.23 367.22 1314.09 365.98 1310.37 365.98C1308.13 365.98 1306.11 366.5 1304.31 367.54C1302.51 368.58 1301.11 370.04 1300.11 371.92C1299.11 373.76 1298.61 375.88 1298.61 378.28C1298.61 380.68 1299.11 382.82 1300.11 384.7C1301.11 386.58 1302.51 388.04 1304.31 389.08C1306.11 390.12 1308.13 390.64 1310.37 390.64C1312.41 390.64 1314.27 390.28 1315.95 389.56C1317.67 388.84 1319.11 387.8 1320.27 386.44L1322.55 388.84C1321.15 390.52 1319.39 391.82 1317.27 392.74C1315.15 393.66 1312.79 394.12 1310.19 394.12C1307.19 394.12 1304.51 393.46 1302.15 392.14C1299.79 390.78 1297.93 388.9 1296.57 386.5C1295.25 384.06 1294.59 381.32 1294.59 378.28C1294.59 375.24 1295.25 372.52 1296.57 370.12C1297.93 367.68 1299.79 365.8 1302.15 364.48C1304.51 363.12 1307.19 362.44 1310.19 362.44C1312.63 362.44 1314.85 362.84 1316.85 363.64C1318.89 364.44 1320.63 365.56 1322.07 367L1319.79 369.7ZM1351.84 369.7C1349.28 367.22 1346.14 365.98 1342.42 365.98C1340.18 365.98 1338.16 366.5 1336.36 367.54C1334.56 368.58 1333.16 370.04 1332.16 371.92C1331.16 373.76 1330.66 375.88 1330.66 378.28C1330.66 380.68 1331.16 382.82 1332.16 384.7C1333.16 386.58 1334.56 388.04 1336.36 389.08C1338.16 390.12 1340.18 390.64 1342.42 390.64C1344.46 390.64 1346.32 390.28 1348 389.56C1349.72 388.84 1351.16 387.8 1352.32 386.44L1354.6 388.84C1353.2 390.52 1351.44 391.82 1349.32 392.74C1347.2 393.66 1344.84 394.12 1342.24 394.12C1339.24 394.12 1336.56 393.46 1334.2 392.14C1331.84 390.78 1329.98 388.9 1328.62 386.5C1327.3 384.06 1326.64 381.32 1326.64 378.28C1326.64 375.24 1327.3 372.52 1328.62 370.12C1329.98 367.68 1331.84 365.8 1334.2 364.48C1336.56 363.12 1339.24 362.44 1342.24 362.44C1344.68 362.44 1346.9 362.84 1348.9 363.64C1350.94 364.44 1352.68 365.56 1354.12 367L1351.84 369.7ZM1374.6 362.44C1377.64 362.44 1380.36 363.12 1382.76 364.48C1385.16 365.8 1387.04 367.66 1388.4 370.06C1389.76 372.46 1390.44 375.18 1390.44 378.22C1390.44 381.3 1389.76 384.06 1388.4 386.5C1387.04 388.9 1385.16 390.78 1382.76 392.14C1380.36 393.46 1377.64 394.12 1374.6 394.12C1371.56 394.12 1368.84 393.46 1366.44 392.14C1364.04 390.78 1362.16 388.9 1360.8 386.5C1359.44 384.06 1358.76 381.3 1358.76 378.22C1358.76 375.18 1359.44 372.46 1360.8 370.06C1362.16 367.66 1364.04 365.8 1366.44 364.48C1368.84 363.12 1371.56 362.44 1374.6 362.44ZM1374.6 365.92C1372.32 365.92 1370.28 366.44 1368.48 367.48C1366.68 368.52 1365.28 369.98 1364.28 371.86C1363.28 373.74 1362.78 375.88 1362.78 378.28C1362.78 380.72 1363.28 382.88 1364.28 384.76C1365.28 386.64 1366.68 388.1 1368.48 389.14C1370.28 390.18 1372.32 390.7 1374.6 390.7C1376.88 390.7 1378.92 390.18 1380.72 389.14C1382.52 388.1 1383.92 386.64 1384.92 384.76C1385.92 382.88 1386.42 380.72 1386.42 378.28C1386.42 375.88 1385.92 373.74 1384.92 371.86C1383.92 369.98 1382.52 368.52 1380.72 367.48C1378.92 366.44 1376.88 365.92 1374.6 365.92ZM1425.97 362.56V394H1421.89V386.5C1420.85 388.98 1419.29 390.86 1417.21 392.14C1415.17 393.42 1412.69 394.08 1409.77 394.12C1406.05 394.12 1403.13 393.04 1401.01 390.88C1398.93 388.68 1397.89 385.68 1397.89 381.88V362.56H1401.97V380.92C1401.97 383.88 1402.77 386.2 1404.37 387.88C1406.01 389.52 1408.25 390.34 1411.09 390.34C1414.45 390.3 1417.09 389.16 1419.01 386.92C1420.93 384.64 1421.89 381.66 1421.89 377.98V362.56H1425.97ZM1454.08 362.44C1457.84 362.44 1460.78 363.54 1462.9 365.74C1465.06 367.9 1466.14 370.88 1466.14 374.68V394H1462.06V375.64C1462.06 372.68 1461.24 370.36 1459.6 368.68C1457.96 367 1455.68 366.16 1452.76 366.16C1449.52 366.2 1446.92 367.2 1444.96 369.16C1443.04 371.12 1441.94 373.76 1441.66 377.08V394H1437.64V362.56H1441.66V369.88C1442.74 367.44 1444.32 365.6 1446.4 364.36C1448.52 363.12 1451.08 362.48 1454.08 362.44ZM1492.74 391.84C1490.58 393.32 1488.26 394.1 1485.78 394.18C1483.38 394.18 1481.48 393.44 1480.08 391.96C1478.68 390.48 1477.98 388.26 1477.98 385.3V366.58H1473.48L1473.42 363.46H1477.98V355.36H1482V363.46L1492.2 363.4V366.58H1482V384.64C1482 388.52 1483.44 390.46 1486.32 390.46C1487.92 390.46 1489.66 389.9 1491.54 388.78L1492.74 391.84ZM1499.98 389.08C1500.7 389.08 1501.3 389.34 1501.78 389.86C1502.3 390.34 1502.56 390.98 1502.56 391.78C1502.56 392.34 1502.34 393.1 1501.9 394.06L1498.9 400.9H1496.5L1498.84 394.12C1498.36 393.92 1497.98 393.6 1497.7 393.16C1497.46 392.72 1497.34 392.26 1497.34 391.78C1497.34 391.02 1497.58 390.38 1498.06 389.86C1498.58 389.34 1499.22 389.08 1499.98 389.08ZM1544.91 362.44C1547.83 362.44 1550.43 363.12 1552.71 364.48C1555.03 365.8 1556.83 367.68 1558.11 370.12C1559.39 372.52 1560.03 375.26 1560.03 378.34C1560.03 381.38 1559.39 384.1 1558.11 386.5C1556.83 388.9 1555.05 390.78 1552.77 392.14C1550.49 393.46 1547.89 394.12 1544.97 394.12C1542.09 394.12 1539.57 393.48 1537.41 392.2C1535.25 390.88 1533.57 389.06 1532.37 386.74V394H1528.35V349.48H1532.37V369.82C1533.53 367.5 1535.19 365.7 1537.35 364.42C1539.55 363.1 1542.07 362.44 1544.91 362.44ZM1544.19 390.64C1546.43 390.64 1548.45 390.12 1550.25 389.08C1552.05 388 1553.45 386.52 1554.45 384.64C1555.45 382.76 1555.95 380.62 1555.95 378.22C1555.95 375.86 1555.45 373.74 1554.45 371.86C1553.45 369.98 1552.05 368.52 1550.25 367.48C1548.45 366.4 1546.43 365.86 1544.19 365.86C1541.91 365.86 1539.87 366.4 1538.07 367.48C1536.31 368.52 1534.91 369.98 1533.87 371.86C1532.87 373.74 1532.37 375.86 1532.37 378.22C1532.37 380.62 1532.87 382.76 1533.87 384.64C1534.87 386.52 1536.27 388 1538.07 389.08C1539.87 390.12 1541.91 390.64 1544.19 390.64ZM1595.54 362.56V394H1591.46V386.5C1590.42 388.98 1588.86 390.86 1586.78 392.14C1584.74 393.42 1582.26 394.08 1579.34 394.12C1575.62 394.12 1572.7 393.04 1570.58 390.88C1568.5 388.68 1567.46 385.68 1567.46 381.88V362.56H1571.54V380.92C1571.54 383.88 1572.34 386.2 1573.94 387.88C1575.58 389.52 1577.82 390.34 1580.66 390.34C1584.02 390.3 1586.66 389.16 1588.58 386.92C1590.5 384.64 1591.46 381.66 1591.46 377.98V362.56H1595.54ZM1623.05 391.84C1620.89 393.32 1618.57 394.1 1616.09 394.18C1613.69 394.18 1611.79 393.44 1610.39 391.96C1608.99 390.48 1608.29 388.26 1608.29 385.3V366.58H1603.79L1603.73 363.46H1608.29V355.36H1612.31V363.46L1622.51 363.4V366.58H1612.31V384.64C1612.31 388.52 1613.75 390.46 1616.63 390.46C1618.23 390.46 1619.97 389.9 1621.85 388.78L1623.05 391.84ZM1647.54 352.06H1651.68V394H1647.54V352.06ZM1661.88 352.06H1665.12V365.08H1661.88V352.06ZM1714.73 362.44C1718.45 362.44 1721.35 363.52 1723.43 365.68C1725.51 367.84 1726.55 370.84 1726.55 374.68V394H1722.47V375.64C1722.47 372.64 1721.65 370.32 1720.01 368.68C1718.41 367 1716.19 366.16 1713.35 366.16C1709.99 366.24 1707.35 367.4 1705.43 369.64C1703.55 371.88 1702.61 374.84 1702.61 378.52V394H1698.53V375.64C1698.53 372.64 1697.71 370.32 1696.07 368.68C1694.47 367 1692.25 366.16 1689.41 366.16C1686.05 366.24 1683.41 367.4 1681.49 369.64C1679.57 371.88 1678.61 374.84 1678.61 378.52V394H1674.59V362.56H1678.61V369.94C1679.65 367.46 1681.19 365.6 1683.23 364.36C1685.31 363.12 1687.83 362.48 1690.79 362.44C1693.79 362.44 1696.27 363.18 1698.23 364.66C1700.23 366.14 1701.55 368.22 1702.19 370.9C1703.15 368.1 1704.69 366 1706.81 364.6C1708.97 363.2 1711.61 362.48 1714.73 362.44ZM1770.07 368.14C1768.87 367.38 1767.53 366.8 1766.05 366.4C1764.57 365.96 1763.11 365.74 1761.67 365.74C1759.67 365.74 1758.05 366.14 1756.81 366.94C1755.61 367.7 1755.01 368.86 1755.01 370.42C1755.01 371.5 1755.33 372.38 1755.97 373.06C1756.65 373.74 1757.47 374.3 1758.43 374.74C1759.43 375.14 1760.81 375.6 1762.57 376.12C1764.73 376.76 1766.49 377.4 1767.85 378.04C1769.21 378.64 1770.37 379.54 1771.33 380.74C1772.29 381.9 1772.77 383.44 1772.77 385.36C1772.77 388.2 1771.69 390.38 1769.53 391.9C1767.37 393.38 1764.67 394.12 1761.43 394.12C1759.15 394.12 1756.95 393.74 1754.83 392.98C1752.71 392.22 1750.93 391.14 1749.49 389.74L1751.11 386.86C1752.47 388.1 1754.07 389.08 1755.91 389.8C1757.79 390.52 1759.69 390.88 1761.61 390.88C1763.73 390.88 1765.45 390.44 1766.77 389.56C1768.13 388.68 1768.81 387.4 1768.81 385.72C1768.81 384.56 1768.47 383.62 1767.79 382.9C1767.11 382.14 1766.25 381.56 1765.21 381.16C1764.21 380.72 1762.81 380.22 1761.01 379.66C1758.89 379.02 1757.17 378.4 1755.85 377.8C1754.53 377.2 1753.41 376.34 1752.49 375.22C1751.57 374.06 1751.11 372.56 1751.11 370.72C1751.11 367.96 1752.13 365.88 1754.17 364.48C1756.25 363.08 1758.83 362.38 1761.91 362.38C1763.71 362.38 1765.45 362.62 1767.13 363.1C1768.81 363.58 1770.31 364.24 1771.63 365.08L1770.07 368.14ZM1796.6 391.84C1794.44 393.32 1792.12 394.1 1789.64 394.18C1787.24 394.18 1785.34 393.44 1783.94 391.96C1782.54 390.48 1781.84 388.26 1781.84 385.3V366.58H1777.34L1777.28 363.46H1781.84V355.36H1785.86V363.46L1796.06 363.4V366.58H1785.86V384.64C1785.86 388.52 1787.3 390.46 1790.18 390.46C1791.78 390.46 1793.52 389.9 1795.4 388.78L1796.6 391.84ZM1803.85 362.56H1807.87V394H1803.85V362.56ZM1805.89 350.68C1806.69 350.68 1807.35 350.96 1807.87 351.52C1808.39 352.04 1808.65 352.7 1808.65 353.5C1808.65 354.3 1808.37 354.98 1807.81 355.54C1807.29 356.1 1806.65 356.38 1805.89 356.38C1805.09 356.38 1804.41 356.1 1803.85 355.54C1803.33 354.98 1803.07 354.3 1803.07 353.5C1803.07 352.7 1803.33 352.04 1803.85 351.52C1804.41 350.96 1805.09 350.68 1805.89 350.68ZM1819.85 349.48H1823.87V394H1819.85V349.48ZM1836.26 349.48H1840.28V394H1836.26V349.48ZM1863.31 362.56H1867.63L1877.29 389.98L1886.83 362.56H1891.09L1900.69 389.98L1910.29 362.56H1914.49L1902.73 394H1898.53L1888.93 367.42L1879.33 394H1875.13L1863.31 362.56ZM1939.25 394L1939.19 388.72C1937.95 390.56 1936.33 391.94 1934.33 392.86C1932.33 393.74 1930.03 394.18 1927.43 394.18C1925.31 394.18 1923.43 393.78 1921.79 392.98C1920.19 392.14 1918.95 391 1918.07 389.56C1917.19 388.12 1916.75 386.5 1916.75 384.7C1916.75 381.98 1917.79 379.84 1919.87 378.28C1921.99 376.72 1924.89 375.94 1928.57 375.94H1939.13V373.54C1939.13 371.06 1938.39 369.14 1936.91 367.78C1935.43 366.42 1933.27 365.74 1930.43 365.74C1927.07 365.74 1923.69 367 1920.29 369.52L1918.49 366.76C1920.61 365.28 1922.63 364.2 1924.55 363.52C1926.47 362.8 1928.67 362.44 1931.15 362.44C1934.95 362.44 1937.89 363.4 1939.97 365.32C1942.05 367.2 1943.11 369.82 1943.15 373.18L1943.21 394H1939.25ZM1928.15 390.82C1930.95 390.82 1933.31 390.18 1935.23 388.9C1937.19 387.58 1938.51 385.74 1939.19 383.38V379.06H1929.05C1926.29 379.06 1924.19 379.52 1922.75 380.44C1921.31 381.36 1920.59 382.74 1920.59 384.58C1920.59 386.46 1921.27 387.98 1922.63 389.14C1924.03 390.26 1925.87 390.82 1928.15 390.82ZM1953.97 362.56H1957.99V394H1953.97V362.56ZM1956.01 350.68C1956.81 350.68 1957.47 350.96 1957.99 351.52C1958.51 352.04 1958.77 352.7 1958.77 353.5C1958.77 354.3 1958.49 354.98 1957.93 355.54C1957.41 356.1 1956.77 356.38 1956.01 356.38C1955.21 356.38 1954.53 356.1 1953.97 355.54C1953.45 354.98 1953.19 354.3 1953.19 353.5C1953.19 352.7 1953.45 352.04 1953.97 351.52C1954.53 350.96 1955.21 350.68 1956.01 350.68ZM1985.51 391.84C1983.35 393.32 1981.03 394.1 1978.55 394.18C1976.15 394.18 1974.25 393.44 1972.85 391.96C1971.45 390.48 1970.75 388.26 1970.75 385.3V366.58H1966.25L1966.19 363.46H1970.75V355.36H1974.77V363.46L1984.97 363.4V366.58H1974.77V384.64C1974.77 388.52 1976.21 390.46 1979.09 390.46C1980.69 390.46 1982.43 389.9 1984.31 388.78L1985.51 391.84ZM1992.76 362.56H1996.78V394H1992.76V362.56ZM1994.8 350.68C1995.6 350.68 1996.26 350.96 1996.78 351.52C1997.3 352.04 1997.56 352.7 1997.56 353.5C1997.56 354.3 1997.28 354.98 1996.72 355.54C1996.2 356.1 1995.56 356.38 1994.8 356.38C1994 356.38 1993.32 356.1 1992.76 355.54C1992.24 354.98 1991.98 354.3 1991.98 353.5C1991.98 352.7 1992.24 352.04 1992.76 351.52C1993.32 350.96 1994 350.68 1994.8 350.68ZM2024.9 362.44C2028.66 362.44 2031.6 363.54 2033.72 365.74C2035.88 367.9 2036.96 370.88 2036.96 374.68V394H2032.88V375.64C2032.88 372.68 2032.06 370.36 2030.42 368.68C2028.78 367 2026.5 366.16 2023.58 366.16C2020.34 366.2 2017.74 367.2 2015.78 369.16C2013.86 371.12 2012.76 373.76 2012.48 377.08V394H2008.46V362.56H2012.48V369.88C2013.56 367.44 2015.14 365.6 2017.22 364.36C2019.34 363.12 2021.9 362.48 2024.9 362.44ZM2074.9 362.56V390.7C2074.9 393.74 2074.26 396.4 2072.98 398.68C2071.7 400.96 2069.86 402.7 2067.46 403.9C2065.1 405.14 2062.36 405.76 2059.24 405.76C2054.6 405.76 2050.3 404.16 2046.34 400.96L2048.26 398.08C2049.86 399.48 2051.54 400.54 2053.3 401.26C2055.06 401.98 2056.98 402.34 2059.06 402.34C2062.66 402.34 2065.52 401.28 2067.64 399.16C2069.8 397.08 2070.88 394.28 2070.88 390.76V385.66C2069.76 387.86 2068.16 389.58 2066.08 390.82C2064 392.06 2061.6 392.68 2058.88 392.68C2056.08 392.68 2053.58 392.04 2051.38 390.76C2049.22 389.44 2047.52 387.64 2046.28 385.36C2045.08 383.04 2044.48 380.42 2044.48 377.5C2044.48 374.58 2045.08 371.98 2046.28 369.7C2047.52 367.42 2049.24 365.64 2051.44 364.36C2053.64 363.08 2056.14 362.44 2058.94 362.44C2061.66 362.44 2064.04 363.06 2066.08 364.3C2068.12 365.5 2069.72 367.22 2070.88 369.46V362.56H2074.9ZM2059.6 389.44C2061.76 389.44 2063.7 388.94 2065.42 387.94C2067.14 386.9 2068.48 385.48 2069.44 383.68C2070.4 381.88 2070.88 379.86 2070.88 377.62C2070.88 375.34 2070.4 373.3 2069.44 371.5C2068.48 369.7 2067.14 368.3 2065.42 367.3C2063.7 366.26 2061.76 365.74 2059.6 365.74C2057.44 365.74 2055.5 366.26 2053.78 367.3C2052.06 368.3 2050.7 369.7 2049.7 371.5C2048.74 373.3 2048.26 375.34 2048.26 377.62C2048.26 379.9 2048.74 381.94 2049.7 383.74C2050.7 385.5 2052.04 386.9 2053.72 387.94C2055.44 388.94 2057.4 389.44 2059.6 389.44ZM2113.13 352.6C2111.45 352.6 2110.03 353.18 2108.87 354.34C2107.75 355.5 2107.19 357.04 2107.19 358.96V363.4H2116.43V366.58H2107.19V394H2103.17V366.58H2099.15V363.4H2103.17V359.44C2103.17 357.36 2103.61 355.54 2104.49 353.98C2105.37 352.38 2106.55 351.16 2108.03 350.32C2109.51 349.48 2111.11 349.06 2112.83 349.06C2114.79 349.06 2116.63 349.54 2118.35 350.5L2117.33 353.74C2115.89 352.98 2114.49 352.6 2113.13 352.6ZM2133.85 362.44C2136.89 362.44 2139.61 363.12 2142.01 364.48C2144.41 365.8 2146.29 367.66 2147.65 370.06C2149.01 372.46 2149.69 375.18 2149.69 378.22C2149.69 381.3 2149.01 384.06 2147.65 386.5C2146.29 388.9 2144.41 390.78 2142.01 392.14C2139.61 393.46 2136.89 394.12 2133.85 394.12C2130.81 394.12 2128.09 393.46 2125.69 392.14C2123.29 390.78 2121.41 388.9 2120.05 386.5C2118.69 384.06 2118.01 381.3 2118.01 378.22C2118.01 375.18 2118.69 372.46 2120.05 370.06C2121.41 367.66 2123.29 365.8 2125.69 364.48C2128.09 363.12 2130.81 362.44 2133.85 362.44ZM2133.85 365.92C2131.57 365.92 2129.53 366.44 2127.73 367.48C2125.93 368.52 2124.53 369.98 2123.53 371.86C2122.53 373.74 2122.03 375.88 2122.03 378.28C2122.03 380.72 2122.53 382.88 2123.53 384.76C2124.53 386.64 2125.93 388.1 2127.73 389.14C2129.53 390.18 2131.57 390.7 2133.85 390.7C2136.13 390.7 2138.17 390.18 2139.97 389.14C2141.77 388.1 2143.17 386.64 2144.17 384.76C2145.17 382.88 2145.67 380.72 2145.67 378.28C2145.67 375.88 2145.17 373.74 2144.17 371.86C2143.17 369.98 2141.77 368.52 2139.97 367.48C2138.17 366.44 2136.13 365.92 2133.85 365.92ZM2162.25 369.88C2163.29 367.48 2164.77 365.66 2166.69 364.42C2168.65 363.14 2170.99 362.48 2173.71 362.44V366.22C2170.39 366.18 2167.71 367.16 2165.67 369.16C2163.67 371.12 2162.53 373.8 2162.25 377.2V394H2158.23V362.56H2162.25V369.88ZM2236.86 362.44C2240.58 362.44 2243.48 363.52 2245.56 365.68C2247.64 367.84 2248.68 370.84 2248.68 374.68V394H2244.6V375.64C2244.6 372.64 2243.78 370.32 2242.14 368.68C2240.54 367 2238.32 366.16 2235.48 366.16C2232.12 366.24 2229.48 367.4 2227.56 369.64C2225.68 371.88 2224.74 374.84 2224.74 378.52V394H2220.66V375.64C2220.66 372.64 2219.84 370.32 2218.2 368.68C2216.6 367 2214.38 366.16 2211.54 366.16C2208.18 366.24 2205.54 367.4 2203.62 369.64C2201.7 371.88 2200.74 374.84 2200.74 378.52V394H2196.72V362.56H2200.74V369.94C2201.78 367.46 2203.32 365.6 2205.36 364.36C2207.44 363.12 2209.96 362.48 2212.92 362.44C2215.92 362.44 2218.4 363.18 2220.36 364.66C2222.36 366.14 2223.68 368.22 2224.32 370.9C2225.28 368.1 2226.82 366 2228.94 364.6C2231.1 363.2 2233.74 362.48 2236.86 362.44ZM2267.37 398.5C2266.41 400.9 2265.13 402.72 2263.53 403.96C2261.97 405.2 2260.17 405.82 2258.13 405.82C2255.69 405.82 2253.53 405.1 2251.65 403.66L2253.45 400.54C2254.85 401.5 2256.35 401.98 2257.95 401.98C2259.23 401.98 2260.39 401.56 2261.43 400.72C2262.47 399.88 2263.33 398.66 2264.01 397.06L2265.33 393.82L2252.31 362.56H2256.57L2267.37 389.56L2277.75 362.56H2281.89L2267.37 398.5ZM2308.2 369.88C2309.24 367.48 2310.72 365.66 2312.64 364.42C2314.6 363.14 2316.94 362.48 2319.66 362.44V366.22C2316.34 366.18 2313.66 367.16 2311.62 369.16C2309.62 371.12 2308.48 373.8 2308.2 377.2V394H2304.18V362.56H2308.2V369.88ZM2338.4 362.44C2343.28 362.44 2347 364 2349.56 367.12C2352.12 370.2 2353.3 374.36 2353.1 379.6H2326.88C2327.16 382.96 2328.4 385.68 2330.6 387.76C2332.8 389.8 2335.52 390.82 2338.76 390.82C2340.76 390.82 2342.62 390.46 2344.34 389.74C2346.06 389.02 2347.54 388 2348.78 386.68L2351.06 388.96C2349.54 390.6 2347.7 391.88 2345.54 392.8C2343.42 393.68 2341.08 394.12 2338.52 394.12C2335.48 394.12 2332.78 393.46 2330.42 392.14C2328.06 390.78 2326.2 388.9 2324.84 386.5C2323.52 384.1 2322.86 381.36 2322.86 378.28C2322.86 375.24 2323.52 372.52 2324.84 370.12C2326.2 367.68 2328.06 365.8 2330.42 364.48C2332.78 363.12 2335.44 362.44 2338.4 362.44ZM2349.5 376.48C2349.3 373.2 2348.2 370.6 2346.2 368.68C2344.24 366.72 2341.66 365.74 2338.46 365.74C2335.3 365.74 2332.66 366.72 2330.54 368.68C2328.42 370.64 2327.2 373.24 2326.88 376.48H2349.5ZM2354.91 362.56H2359.23L2368.89 389.98L2378.43 362.56H2382.69L2392.29 389.98L2401.89 362.56H2406.09L2394.33 394H2390.13L2380.53 367.42L2370.93 394H2366.73L2354.91 362.56ZM2430.86 394L2430.8 388.72C2429.56 390.56 2427.94 391.94 2425.94 392.86C2423.94 393.74 2421.64 394.18 2419.04 394.18C2416.92 394.18 2415.04 393.78 2413.4 392.98C2411.8 392.14 2410.56 391 2409.68 389.56C2408.8 388.12 2408.36 386.5 2408.36 384.7C2408.36 381.98 2409.4 379.84 2411.48 378.28C2413.6 376.72 2416.5 375.94 2420.18 375.94H2430.74V373.54C2430.74 371.06 2430 369.14 2428.52 367.78C2427.04 366.42 2424.88 365.74 2422.04 365.74C2418.68 365.74 2415.3 367 2411.9 369.52L2410.1 366.76C2412.22 365.28 2414.24 364.2 2416.16 363.52C2418.08 362.8 2420.28 362.44 2422.76 362.44C2426.56 362.44 2429.5 363.4 2431.58 365.32C2433.66 367.2 2434.72 369.82 2434.76 373.18L2434.82 394H2430.86ZM2419.76 390.82C2422.56 390.82 2424.92 390.18 2426.84 388.9C2428.8 387.58 2430.12 385.74 2430.8 383.38V379.06H2420.66C2417.9 379.06 2415.8 379.52 2414.36 380.44C2412.92 381.36 2412.2 382.74 2412.2 384.58C2412.2 386.46 2412.88 387.98 2414.24 389.14C2415.64 390.26 2417.48 390.82 2419.76 390.82ZM2449.59 369.88C2450.63 367.48 2452.11 365.66 2454.03 364.42C2455.99 363.14 2458.33 362.48 2461.05 362.44V366.22C2457.73 366.18 2455.05 367.16 2453.01 369.16C2451.01 371.12 2449.87 373.8 2449.59 377.2V394H2445.57V362.56H2449.59V369.88ZM2496.16 349.48V394H2492.14V386.8C2490.94 389.16 2489.26 391 2487.1 392.32C2484.94 393.6 2482.42 394.24 2479.54 394.24C2476.58 394.24 2473.94 393.56 2471.62 392.2C2469.3 390.84 2467.5 388.94 2466.22 386.5C2464.94 384.06 2464.3 381.3 2464.3 378.22C2464.3 375.14 2464.94 372.4 2466.22 370C2467.54 367.6 2469.34 365.72 2471.62 364.36C2473.94 363 2476.56 362.32 2479.48 362.32C2482.36 362.32 2484.88 362.98 2487.04 364.3C2489.24 365.62 2490.94 367.46 2492.14 369.82V349.48H2496.16ZM2480.26 390.76C2482.54 390.76 2484.58 390.24 2486.38 389.2C2488.18 388.12 2489.58 386.64 2490.58 384.76C2491.62 382.88 2492.14 380.74 2492.14 378.34C2492.14 375.94 2491.62 373.8 2490.58 371.92C2489.58 370 2488.18 368.5 2486.38 367.42C2484.58 366.34 2482.54 365.8 2480.26 365.8C2477.98 365.8 2475.94 366.34 2474.14 367.42C2472.34 368.5 2470.92 370 2469.88 371.92C2468.84 373.8 2468.32 375.94 2468.32 378.34C2468.32 380.74 2468.82 382.88 2469.82 384.76C2470.86 386.64 2472.28 388.12 2474.08 389.2C2475.92 390.24 2477.98 390.76 2480.26 390.76ZM2508.15 389.02C2508.91 389.02 2509.55 389.28 2510.07 389.8C2510.59 390.32 2510.85 390.96 2510.85 391.72C2510.85 392.48 2510.59 393.14 2510.07 393.7C2509.55 394.22 2508.91 394.48 2508.15 394.48C2507.39 394.48 2506.75 394.22 2506.23 393.7C2505.75 393.18 2505.51 392.52 2505.51 391.72C2505.51 390.96 2505.75 390.32 2506.23 389.8C2506.75 389.28 2507.39 389.02 2508.15 389.02Z" fill="#393939"/>
<path d="M870.986 206L877.256 167.5H885.451L891.721 206H885.671L884.571 198.355V198.465H877.696L876.596 206H870.986ZM878.411 193.24H883.856L881.161 174.21H881.051L878.411 193.24ZM903.074 206.55C897.244 206.55 894.164 203.03 894.164 197.09V176.41C894.164 170.47 897.244 166.95 903.074 166.95C908.904 166.95 911.984 170.47 911.984 176.41V180.48H906.264V176.025C906.264 173.495 905.054 172.45 903.239 172.45C901.424 172.45 900.214 173.495 900.214 176.025V197.53C900.214 200.06 901.424 201.05 903.239 201.05C905.054 201.05 906.264 200.06 906.264 197.53V191.645H911.984V197.09C911.984 203.03 908.904 206.55 903.074 206.55ZM920.334 206V173H914.009V167.5H932.709V173H926.384V206H920.334ZM935.638 206V167.5H941.688V206H935.638ZM954.964 206.55C949.024 206.55 945.779 203.03 945.779 196.87V176.63C945.779 170.47 949.024 166.95 954.964 166.95C960.904 166.95 964.149 170.47 964.149 176.63V196.87C964.149 203.03 960.904 206.55 954.964 206.55ZM954.964 201.05C956.889 201.05 958.099 200.005 958.099 197.255V176.245C958.099 173.495 956.889 172.45 954.964 172.45C953.039 172.45 951.829 173.495 951.829 176.245V197.255C951.829 200.005 953.039 201.05 954.964 201.05ZM968.24 206V167.5H975.83L981.715 190.545H981.825V167.5H987.215V206H981L973.74 177.895H973.63V206H968.24ZM1000.52 206V167.5H1009.43C1015.48 167.5 1018.45 170.855 1018.45 177.015V180.81C1018.45 186.97 1015.48 190.325 1009.43 190.325H1006.57V206H1000.52ZM1006.57 184.825H1009.43C1011.36 184.825 1012.4 183.945 1012.4 181.195V176.63C1012.4 173.88 1011.36 173 1009.43 173H1006.57V184.825ZM1021.74 206V167.5H1038.24V173H1027.79V183.175H1036.09V188.675H1027.79V200.5H1038.24V206H1021.74ZM1041.72 206V167.5H1050.68C1056.95 167.5 1059.65 170.415 1059.65 176.355V178.72C1059.65 182.68 1058.38 185.21 1055.69 186.31V186.42C1058.71 187.355 1059.7 190.215 1059.7 194.56V201.325C1059.7 203.195 1059.76 204.57 1060.36 206H1054.2C1053.87 205.01 1053.65 204.405 1053.65 201.27V194.23C1053.65 190.655 1052.61 189.5 1049.86 189.5H1047.77V206H1041.72ZM1047.77 184H1049.97C1052.22 184 1053.6 183.01 1053.6 179.93V176.96C1053.6 174.21 1052.66 173 1050.52 173H1047.77V184ZM1063.9 206V167.5H1079.9V173H1069.95V183.725H1077.76V189.225H1069.95V206H1063.9ZM1091.55 206.55C1085.61 206.55 1082.37 203.03 1082.37 196.87V176.63C1082.37 170.47 1085.61 166.95 1091.55 166.95C1097.49 166.95 1100.74 170.47 1100.74 176.63V196.87C1100.74 203.03 1097.49 206.55 1091.55 206.55ZM1091.55 201.05C1093.48 201.05 1094.69 200.005 1094.69 197.255V176.245C1094.69 173.495 1093.48 172.45 1091.55 172.45C1089.63 172.45 1088.42 173.495 1088.42 176.245V197.255C1088.42 200.005 1089.63 201.05 1091.55 201.05ZM1104.83 206V167.5H1113.79C1120.06 167.5 1122.76 170.415 1122.76 176.355V178.72C1122.76 182.68 1121.49 185.21 1118.8 186.31V186.42C1121.82 187.355 1122.81 190.215 1122.81 194.56V201.325C1122.81 203.195 1122.87 204.57 1123.47 206H1117.31C1116.98 205.01 1116.76 204.405 1116.76 201.27V194.23C1116.76 190.655 1115.72 189.5 1112.97 189.5H1110.88V206H1104.83ZM1110.88 184H1113.08C1115.33 184 1116.71 183.01 1116.71 179.93V176.96C1116.71 174.21 1115.77 173 1113.63 173H1110.88V184ZM1127.01 206V167.5H1135.64L1139.49 195.055H1139.6L1143.45 167.5H1152.09V206H1146.37V176.85H1146.26L1141.86 206H1136.8L1132.4 176.85H1132.29V206H1127.01ZM1156.6 206V167.5H1173.1V173H1162.65V183.175H1170.96V188.675H1162.65V200.5H1173.1V206H1156.6ZM1176.59 206V167.5H1185.83C1191.88 167.5 1194.85 170.855 1194.85 177.015V196.485C1194.85 202.645 1191.88 206 1185.83 206H1176.59ZM1182.64 200.5H1185.72C1187.64 200.5 1188.8 199.51 1188.8 196.76V176.74C1188.8 173.99 1187.64 173 1185.72 173H1182.64V200.5Z" fill="#393939"/>
<path d="M1766.38 206.55C1760.44 206.55 1757.36 203.03 1757.36 196.87V167.5H1763.41V197.31C1763.41 200.06 1764.56 201.05 1766.49 201.05C1768.41 201.05 1769.57 200.06 1769.57 197.31V167.5H1775.4V196.87C1775.4 203.03 1772.32 206.55 1766.38 206.55ZM1787.57 206.55C1781.63 206.55 1778.66 203.03 1778.66 196.87V194.67H1784.38V197.31C1784.38 200.06 1785.59 201.05 1787.52 201.05C1789.44 201.05 1790.65 200.06 1790.65 197.2C1790.65 194.01 1789.44 191.975 1785.48 188.51C1780.42 184.055 1778.77 180.92 1778.77 176.52C1778.77 170.47 1781.91 166.95 1787.79 166.95C1793.68 166.95 1796.59 170.47 1796.59 176.63V178.225H1790.87V176.245C1790.87 173.495 1789.77 172.45 1787.85 172.45C1785.92 172.45 1784.82 173.495 1784.82 176.135C1784.82 178.94 1786.09 180.975 1790.05 184.44C1795.11 188.895 1796.7 191.975 1796.7 196.76C1796.7 203.03 1793.51 206.55 1787.57 206.55ZM1800.17 206V167.5H1816.67V173H1806.22V183.175H1814.53V188.675H1806.22V200.5H1816.67V206H1800.17ZM1820.15 206V167.5H1829.12C1835.39 167.5 1838.08 170.415 1838.08 176.355V178.72C1838.08 182.68 1836.82 185.21 1834.12 186.31V186.42C1837.15 187.355 1838.14 190.215 1838.14 194.56V201.325C1838.14 203.195 1838.19 204.57 1838.8 206H1832.64C1832.31 205.01 1832.09 204.405 1832.09 201.27V194.23C1832.09 190.655 1831.04 189.5 1828.29 189.5H1826.2V206H1820.15ZM1826.2 184H1828.4C1830.66 184 1832.03 183.01 1832.03 179.93V176.96C1832.03 174.21 1831.1 173 1828.95 173H1826.2V184ZM1842 179.93L1844.31 173.33H1842.33V167.5H1848.16V172.725L1844.81 179.93H1842ZM1860.57 206.55C1854.63 206.55 1851.66 203.03 1851.66 196.87V194.67H1857.38V197.31C1857.38 200.06 1858.59 201.05 1860.51 201.05C1862.44 201.05 1863.65 200.06 1863.65 197.2C1863.65 194.01 1862.44 191.975 1858.48 188.51C1853.42 184.055 1851.77 180.92 1851.77 176.52C1851.77 170.47 1854.9 166.95 1860.79 166.95C1866.67 166.95 1869.59 170.47 1869.59 176.63V178.225H1863.87V176.245C1863.87 173.495 1862.77 172.45 1860.84 172.45C1858.92 172.45 1857.82 173.495 1857.82 176.135C1857.82 178.94 1859.08 180.975 1863.04 184.44C1868.1 188.895 1869.7 191.975 1869.7 196.76C1869.7 203.03 1866.51 206.55 1860.57 206.55ZM1890.5 206.55C1884.67 206.55 1881.59 203.03 1881.59 197.09V176.41C1881.59 170.47 1884.67 166.95 1890.5 166.95C1896.33 166.95 1899.41 170.47 1899.41 176.41V180.48H1893.69V176.025C1893.69 173.495 1892.48 172.45 1890.66 172.45C1888.85 172.45 1887.64 173.495 1887.64 176.025V197.53C1887.64 200.06 1888.85 201.05 1890.66 201.05C1892.48 201.05 1893.69 200.06 1893.69 197.53V191.645H1899.41V197.09C1899.41 203.03 1896.33 206.55 1890.5 206.55ZM1911.83 206.55C1905.89 206.55 1902.81 203.03 1902.81 196.87V167.5H1908.86V197.31C1908.86 200.06 1910.01 201.05 1911.94 201.05C1913.86 201.05 1915.02 200.06 1915.02 197.31V167.5H1920.85V196.87C1920.85 203.03 1917.77 206.55 1911.83 206.55ZM1925.16 206V167.5H1934.12C1940.39 167.5 1943.09 170.415 1943.09 176.355V178.72C1943.09 182.68 1941.82 185.21 1939.13 186.31V186.42C1942.15 187.355 1943.14 190.215 1943.14 194.56V201.325C1943.14 203.195 1943.2 204.57 1943.8 206H1937.64C1937.31 205.01 1937.09 204.405 1937.09 201.27V194.23C1937.09 190.655 1936.05 189.5 1933.3 189.5H1931.21V206H1925.16ZM1931.21 184H1933.41C1935.66 184 1937.04 183.01 1937.04 179.93V176.96C1937.04 174.21 1936.1 173 1933.96 173H1931.21V184ZM1947.34 206V167.5H1956.3C1962.57 167.5 1965.27 170.415 1965.27 176.355V178.72C1965.27 182.68 1964 185.21 1961.31 186.31V186.42C1964.33 187.355 1965.32 190.215 1965.32 194.56V201.325C1965.32 203.195 1965.38 204.57 1965.98 206H1959.82C1959.49 205.01 1959.27 204.405 1959.27 201.27V194.23C1959.27 190.655 1958.23 189.5 1955.48 189.5H1953.39V206H1947.34ZM1953.39 184H1955.59C1957.84 184 1959.22 183.01 1959.22 179.93V176.96C1959.22 174.21 1958.28 173 1956.14 173H1953.39V184ZM1969.52 206V167.5H1986.02V173H1975.57V183.175H1983.88V188.675H1975.57V200.5H1986.02V206H1969.52ZM1989.5 206V167.5H1997.09L2002.98 190.545H2003.09V167.5H2008.48V206H2002.26L1995 177.895H1994.89V206H1989.5ZM2017.7 206V173H2011.38V167.5H2030.08V173H2023.75V206H2017.7ZM2040.22 206L2046.49 167.5H2054.69L2060.96 206H2054.91L2053.81 198.355V198.465H2046.93L2045.83 206H2040.22ZM2047.65 193.24H2053.09L2050.4 174.21H2050.29L2047.65 193.24ZM2072.31 206.55C2066.48 206.55 2063.4 203.03 2063.4 197.09V176.41C2063.4 170.47 2066.48 166.95 2072.31 166.95C2078.14 166.95 2081.22 170.47 2081.22 176.41V180.48H2075.5V176.025C2075.5 173.495 2074.29 172.45 2072.47 172.45C2070.66 172.45 2069.45 173.495 2069.45 176.025V197.53C2069.45 200.06 2070.66 201.05 2072.47 201.05C2074.29 201.05 2075.5 200.06 2075.5 197.53V191.645H2081.22V197.09C2081.22 203.03 2078.14 206.55 2072.31 206.55ZM2089.57 206V173H2083.24V167.5H2101.94V173H2095.62V206H2089.57ZM2104.87 206V167.5H2110.92V206H2104.87ZM2119.69 206L2113.86 167.5H2119.96L2123.92 197.365H2124.03L2127.99 167.5H2133.55L2127.72 206H2119.69ZM2136.46 206V167.5H2142.51V206H2136.46ZM2151.77 206V173H2145.44V167.5H2164.14V173H2157.82V206H2151.77ZM2172.84 206V189.61L2165.53 167.5H2171.96L2176.09 181.635H2176.2L2180.32 167.5H2186.21L2178.89 189.61V206H2172.84Z" fill="#393939"/>
<path d="M1538.44 586.55C1532.5 586.55 1529.26 583.03 1529.26 576.87V556.63C1529.26 550.47 1532.5 546.95 1538.44 546.95C1544.38 546.95 1547.63 550.47 1547.63 556.63V576.87C1547.63 583.03 1544.38 586.55 1538.44 586.55ZM1538.44 581.05C1540.37 581.05 1541.58 580.005 1541.58 577.255V556.245C1541.58 553.495 1540.37 552.45 1538.44 552.45C1536.52 552.45 1535.31 553.495 1535.31 556.245V577.255C1535.31 580.005 1536.52 581.05 1538.44 581.05ZM1551.72 586V547.5H1559.31L1565.2 570.545H1565.31V547.5H1570.7V586H1564.48L1557.22 557.895H1557.11V586H1551.72ZM1574.31 569.5V564H1586.41V569.5H1574.31ZM1598.6 586.55C1592.66 586.55 1589.58 583.03 1589.58 576.87V556.63C1589.58 550.47 1592.66 546.95 1598.6 546.95C1604.54 546.95 1607.62 550.47 1607.62 556.63V559.93H1601.9V556.245C1601.9 553.495 1600.69 552.45 1598.76 552.45C1596.84 552.45 1595.63 553.495 1595.63 556.245V577.31C1595.63 580.06 1596.84 581.05 1598.76 581.05C1600.69 581.05 1601.9 580.06 1601.9 577.31V569.775H1598.87V564.275H1607.62V576.87C1607.62 583.03 1604.54 586.55 1598.6 586.55ZM1620.25 586.55C1614.31 586.55 1611.06 583.03 1611.06 576.87V556.63C1611.06 550.47 1614.31 546.95 1620.25 546.95C1626.19 546.95 1629.43 550.47 1629.43 556.63V576.87C1629.43 583.03 1626.19 586.55 1620.25 586.55ZM1620.25 581.05C1622.17 581.05 1623.38 580.005 1623.38 577.255V556.245C1623.38 553.495 1622.17 552.45 1620.25 552.45C1618.32 552.45 1617.11 553.495 1617.11 556.245V577.255C1617.11 580.005 1618.32 581.05 1620.25 581.05ZM1633.52 586V547.5H1639.57V586H1633.52ZM1644.1 586V547.5H1651.69L1657.58 570.545H1657.69V547.5H1663.08V586H1656.86L1649.6 557.895H1649.49V586H1644.1ZM1676.15 586.55C1670.21 586.55 1667.13 583.03 1667.13 576.87V556.63C1667.13 550.47 1670.21 546.95 1676.15 546.95C1682.09 546.95 1685.17 550.47 1685.17 556.63V559.93H1679.45V556.245C1679.45 553.495 1678.24 552.45 1676.32 552.45C1674.39 552.45 1673.18 553.495 1673.18 556.245V577.31C1673.18 580.06 1674.39 581.05 1676.32 581.05C1678.24 581.05 1679.45 580.06 1679.45 577.31V569.775H1676.43V564.275H1685.17V576.87C1685.17 583.03 1682.09 586.55 1676.15 586.55ZM1697.87 586V547.5H1705.46L1711.34 570.545H1711.45V547.5H1716.84V586H1710.63L1703.37 557.895H1703.26V586H1697.87ZM1719.74 586L1726.01 547.5H1734.21L1740.48 586H1734.43L1733.33 578.355V578.465H1726.45L1725.35 586H1719.74ZM1727.17 573.24H1732.61L1729.92 554.21H1729.81L1727.17 573.24ZM1745.62 586V553H1739.3V547.5H1758V553H1751.67V586H1745.62ZM1769.72 586.55C1763.78 586.55 1760.7 583.03 1760.7 576.87V547.5H1766.75V577.31C1766.75 580.06 1767.91 581.05 1769.83 581.05C1771.76 581.05 1772.91 580.06 1772.91 577.31V547.5H1778.74V576.87C1778.74 583.03 1775.66 586.55 1769.72 586.55ZM1783.05 586V547.5H1792.02C1798.29 547.5 1800.98 550.415 1800.98 556.355V558.72C1800.98 562.68 1799.72 565.21 1797.02 566.31V566.42C1800.05 567.355 1801.04 570.215 1801.04 574.56V581.325C1801.04 583.195 1801.09 584.57 1801.7 586H1795.54C1795.21 585.01 1794.99 584.405 1794.99 581.27V574.23C1794.99 570.655 1793.94 569.5 1791.19 569.5H1789.1V586H1783.05ZM1789.1 564H1791.3C1793.56 564 1794.93 563.01 1794.93 559.93V556.96C1794.93 554.21 1794 553 1791.85 553H1789.1V564ZM1805.24 586V547.5H1821.74V553H1811.29V563.175H1819.59V568.675H1811.29V580.5H1821.74V586H1805.24ZM1842.77 586.55C1836.83 586.55 1833.59 583.03 1833.59 576.87V556.63C1833.59 550.47 1836.83 546.95 1842.77 546.95C1848.71 546.95 1851.96 550.47 1851.96 556.63V576.87C1851.96 583.03 1848.71 586.55 1842.77 586.55ZM1842.77 581.05C1844.7 581.05 1845.91 580.005 1845.91 577.255V556.245C1845.91 553.495 1844.7 552.45 1842.77 552.45C1840.85 552.45 1839.64 553.495 1839.64 556.245V577.255C1839.64 580.005 1840.85 581.05 1842.77 581.05ZM1856.05 586V547.5H1872.05V553H1862.1V563.725H1869.91V569.225H1862.1V586H1856.05ZM1888.49 586V553H1882.17V547.5H1900.87V553H1894.54V586H1888.49ZM1903.8 586V547.5H1909.85V563.175H1916.34V547.5H1922.39V586H1916.34V568.675H1909.85V586H1903.8ZM1926.89 586V547.5H1943.39V553H1932.94V563.175H1941.25V568.675H1932.94V580.5H1943.39V586H1926.89ZM1954.09 586L1960.36 547.5H1968.55L1974.82 586H1968.77L1967.67 578.355V578.465H1960.8L1959.7 586H1954.09ZM1961.51 573.24H1966.96L1964.26 554.21H1964.15L1961.51 573.24ZM1986.17 586.55C1980.34 586.55 1977.26 583.03 1977.26 577.09V556.41C1977.26 550.47 1980.34 546.95 1986.17 546.95C1992 546.95 1995.08 550.47 1995.08 556.41V560.48H1989.36V556.025C1989.36 553.495 1988.15 552.45 1986.34 552.45C1984.52 552.45 1983.31 553.495 1983.31 556.025V577.53C1983.31 580.06 1984.52 581.05 1986.34 581.05C1988.15 581.05 1989.36 580.06 1989.36 577.53V571.645H1995.08V577.09C1995.08 583.03 1992 586.55 1986.17 586.55ZM2003.43 586V553H1997.11V547.5H2015.81V553H2009.48V586H2003.43ZM2018.74 586V547.5H2024.79V586H2018.74ZM2038.06 586.55C2032.12 586.55 2028.88 583.03 2028.88 576.87V556.63C2028.88 550.47 2032.12 546.95 2038.06 546.95C2044 546.95 2047.25 550.47 2047.25 556.63V576.87C2047.25 583.03 2044 586.55 2038.06 586.55ZM2038.06 581.05C2039.99 581.05 2041.2 580.005 2041.2 577.255V556.245C2041.2 553.495 2039.99 552.45 2038.06 552.45C2036.14 552.45 2034.93 553.495 2034.93 556.245V577.255C2034.93 580.005 2036.14 581.05 2038.06 581.05ZM2051.34 586V547.5H2058.93L2064.81 570.545H2064.92V547.5H2070.31V586H2064.1L2056.84 557.895H2056.73V586H2051.34Z" fill="#393939"/>
<path d="M2249.49 586V547.5H2258.73C2264.78 547.5 2267.75 550.855 2267.75 557.015V576.485C2267.75 582.645 2264.78 586 2258.73 586H2249.49ZM2255.54 580.5H2258.62C2260.55 580.5 2261.7 579.51 2261.7 576.76V556.74C2261.7 553.99 2260.55 553 2258.62 553H2255.54V580.5ZM2271.84 586V547.5H2288.34V553H2277.89V563.175H2286.19V568.675H2277.89V580.5H2288.34V586H2271.84ZM2299.79 586.55C2293.85 586.55 2290.88 583.03 2290.88 576.87V574.67H2296.6V577.31C2296.6 580.06 2297.81 581.05 2299.74 581.05C2301.66 581.05 2302.87 580.06 2302.87 577.2C2302.87 574.01 2301.66 571.975 2297.7 568.51C2292.64 564.055 2290.99 560.92 2290.99 556.52C2290.99 550.47 2294.13 546.95 2300.01 546.95C2305.9 546.95 2308.81 550.47 2308.81 556.63V558.225H2303.09V556.245C2303.09 553.495 2301.99 552.45 2300.07 552.45C2298.14 552.45 2297.04 553.495 2297.04 556.135C2297.04 558.94 2298.31 560.975 2302.27 564.44C2307.33 568.895 2308.92 571.975 2308.92 576.76C2308.92 583.03 2305.73 586.55 2299.79 586.55ZM2312.39 586V547.5H2318.44V586H2312.39ZM2322.97 586V547.5H2331.94C2338.21 547.5 2340.9 550.415 2340.9 556.355V558.72C2340.9 562.68 2339.64 565.21 2336.94 566.31V566.42C2339.97 567.355 2340.96 570.215 2340.96 574.56V581.325C2340.96 583.195 2341.01 584.57 2341.62 586H2335.46C2335.13 585.01 2334.91 584.405 2334.91 581.27V574.23C2334.91 570.655 2333.86 569.5 2331.11 569.5H2329.02V586H2322.97ZM2329.02 564H2331.22C2333.48 564 2334.85 563.01 2334.85 559.93V556.96C2334.85 554.21 2333.92 553 2331.77 553H2329.02V564ZM2345.15 586V547.5H2361.65V553H2351.2V563.175H2359.51V568.675H2351.2V580.5H2361.65V586H2345.15ZM2365.13 586V547.5H2374.37C2380.42 547.5 2383.39 550.855 2383.39 557.015V576.485C2383.39 582.645 2380.42 586 2374.37 586H2365.13ZM2371.18 580.5H2374.26C2376.19 580.5 2377.34 579.51 2377.34 576.76V556.74C2377.34 553.99 2376.19 553 2374.26 553H2371.18V580.5ZM2405.03 586.55C2399.09 586.55 2395.85 583.03 2395.85 576.87V556.63C2395.85 550.47 2399.09 546.95 2405.03 546.95C2410.97 546.95 2414.22 550.47 2414.22 556.63V576.87C2414.22 583.03 2410.97 586.55 2405.03 586.55ZM2405.03 581.05C2406.96 581.05 2408.17 580.005 2408.17 577.255V556.245C2408.17 553.495 2406.96 552.45 2405.03 552.45C2403.11 552.45 2401.9 553.495 2401.9 556.245V577.255C2401.9 580.005 2403.11 581.05 2405.03 581.05ZM2427.11 586.55C2421.17 586.55 2418.09 583.03 2418.09 576.87V547.5H2424.14V577.31C2424.14 580.06 2425.29 581.05 2427.22 581.05C2429.14 581.05 2430.3 580.06 2430.3 577.31V547.5H2436.13V576.87C2436.13 583.03 2433.05 586.55 2427.11 586.55ZM2445.17 586V553H2438.84V547.5H2457.54V553H2451.22V586H2445.17ZM2468.78 586.55C2462.95 586.55 2459.87 583.03 2459.87 577.09V556.41C2459.87 550.47 2462.95 546.95 2468.78 546.95C2474.61 546.95 2477.69 550.47 2477.69 556.41V560.48H2471.97V556.025C2471.97 553.495 2470.76 552.45 2468.95 552.45C2467.13 552.45 2465.92 553.495 2465.92 556.025V577.53C2465.92 580.06 2467.13 581.05 2468.95 581.05C2470.76 581.05 2471.97 580.06 2471.97 577.53V571.645H2477.69V577.09C2477.69 583.03 2474.61 586.55 2468.78 586.55ZM2490.16 586.55C2484.22 586.55 2480.98 583.03 2480.98 576.87V556.63C2480.98 550.47 2484.22 546.95 2490.16 546.95C2496.1 546.95 2499.35 550.47 2499.35 556.63V576.87C2499.35 583.03 2496.1 586.55 2490.16 586.55ZM2490.16 581.05C2492.09 581.05 2493.3 580.005 2493.3 577.255V556.245C2493.3 553.495 2492.09 552.45 2490.16 552.45C2488.24 552.45 2487.03 553.495 2487.03 556.245V577.255C2487.03 580.005 2488.24 581.05 2490.16 581.05ZM2503.44 586V547.5H2512.08L2515.93 575.055H2516.04L2519.89 547.5H2528.52V586H2522.8V556.85H2522.69L2518.29 586H2513.23L2508.83 556.85H2508.72V586H2503.44ZM2533.03 586V547.5H2549.53V553H2539.08V563.175H2547.39V568.675H2539.08V580.5H2549.53V586H2533.03Z" fill="#393939"/>
<g style="mix-blend-mode:multiply">
<rect x="921" y="336" width="212" height="73" fill="#BEDDF5"/>
</g>
<g style="mix-blend-mode:multiply">
<rect x="1748" y="336" width="99" height="73" fill="#BEDDF5"/>
</g>
<g style="mix-blend-mode:multiply">
<rect x="1863" y="336" width="217" height="73" fill="#BEDDF5"/>
</g>
<g style="mix-blend-mode:multiply">
<rect x="2298" y="336" width="204" height="73" fill="#BEDDF5"/>
</g>
<path d="M1033 253.667C1038.89 253.667 1043.67 248.891 1043.67 243C1043.67 237.109 1038.89 232.333 1033 232.333C1027.11 232.333 1022.33 237.109 1022.33 243C1022.33 248.891 1027.11 253.667 1033 253.667ZM1035 327V243H1031V327H1035Z" fill="black"/>
<path d="M1971 253.667C1976.89 253.667 1981.67 248.891 1981.67 243C1981.67 237.109 1976.89 232.333 1971 232.333C1965.11 232.333 1960.33 237.109 1960.33 243C1960.33 248.891 1965.11 253.667 1971 253.667ZM1973 327V243H1969V327H1973Z" fill="black"/>
<path d="M1800 492.333C1794.11 492.333 1789.33 497.109 1789.33 503C1789.33 508.891 1794.11 513.667 1800 513.667C1805.89 513.667 1810.67 508.891 1810.67 503C1810.67 497.109 1805.89 492.333 1800 492.333ZM1798 419V503H1802V419H1798Z" fill="black"/>
<path d="M2399 492.333C2393.11 492.333 2388.33 497.109 2388.33 503C2388.33 508.891 2393.11 513.667 2399 513.667C2404.89 513.667 2409.67 508.891 2409.67 503C2409.67 497.109 2404.89 492.333 2399 492.333ZM2397 419V503H2401V419H2397Z" fill="black"/>
</svg>
